# xmcd
#
# Track frame offsets: 
#        150
#        14220
#        28106
#        40329
#        60344
#        72466
#        83223
#        93862
#        101727
#        114179
#        132638
#
# Disc length: 1920 seconds
#
# Revision: 2
# Processed by: cddbd v1.5.2PL0 Copyright (c) Steve Scherf et al.
# Submitted via: ExactAudioCopy v0.99pb5
#
DISCID=95077e0b
DTITLE=Marvin Etzioni - Marvin Country! [disc 1]
DYEAR=2012
DGENRE=Folk-Rock
TTITLE0=You Possess Me
TTITLE1=Grapes of Wrath
TTITLE2=You Are the Light
TTITLE3=Lay It on the Table
TTITLE4=A Man Without a Country
TTITLE5=Living Like a Hobo
TTITLE6=Son of a Carpenter
TTITLE7=Ain't No Work in Mississippi
TTITLE8=Bob Dylan Is Dead
TTITLE9=Miss This World
TTITLE10=It Don't Cost Much
EXTD=
EXTT0=
EXTT1=
EXTT2=
EXTT3=
EXTT4=
EXTT5=
EXTT6=
EXTT7=
EXTT8=
EXTT9=
EXTT10=
PLAYORDER=
